<mxfile host="app.diagrams.net" agent="Mozilla/5.0 (Windows NT 10.0; Win64; x64) AppleWebKit/537.36 (KHTML, like Gecko) Chrome/133.0.0.0 Safari/537.36" version="26.0.16">
  <diagram name="Página-1" id="6NzH9CcI8M-jl3waZhFr">
    <mxGraphModel dx="934" dy="525" grid="1" gridSize="10" guides="1" tooltips="1" connect="1" arrows="1" fold="1" page="1" pageScale="1" pageWidth="827" pageHeight="1169" math="0" shadow="0">
      <root>
        <mxCell id="0" />
        <mxCell id="1" parent="0" />
        <mxCell id="lkyq2_b8v07VGiwZ4ZU2-5" style="edgeStyle=orthogonalEdgeStyle;rounded=0;orthogonalLoop=1;jettySize=auto;html=1;exitX=0.5;exitY=1;exitDx=0;exitDy=0;entryX=0.5;entryY=0;entryDx=0;entryDy=0;" edge="1" parent="1" source="lkyq2_b8v07VGiwZ4ZU2-1" target="lkyq2_b8v07VGiwZ4ZU2-2">
          <mxGeometry relative="1" as="geometry" />
        </mxCell>
        <mxCell id="lkyq2_b8v07VGiwZ4ZU2-1" value="Inicio" style="rounded=1;whiteSpace=wrap;html=1;" vertex="1" parent="1">
          <mxGeometry x="320" y="40" width="120" height="60" as="geometry" />
        </mxCell>
        <mxCell id="lkyq2_b8v07VGiwZ4ZU2-6" style="edgeStyle=orthogonalEdgeStyle;rounded=0;orthogonalLoop=1;jettySize=auto;html=1;exitX=0.5;exitY=1;exitDx=0;exitDy=0;entryX=0.5;entryY=0;entryDx=0;entryDy=0;" edge="1" parent="1" source="lkyq2_b8v07VGiwZ4ZU2-2" target="lkyq2_b8v07VGiwZ4ZU2-4">
          <mxGeometry relative="1" as="geometry" />
        </mxCell>
        <mxCell id="lkyq2_b8v07VGiwZ4ZU2-2" value="Pegue uma panela adequada" style="rounded=0;whiteSpace=wrap;html=1;" vertex="1" parent="1">
          <mxGeometry x="320" y="160" width="120" height="60" as="geometry" />
        </mxCell>
        <mxCell id="lkyq2_b8v07VGiwZ4ZU2-12" style="edgeStyle=orthogonalEdgeStyle;rounded=0;orthogonalLoop=1;jettySize=auto;html=1;exitX=0;exitY=0.5;exitDx=0;exitDy=0;entryX=1;entryY=0.5;entryDx=0;entryDy=0;" edge="1" parent="1" source="lkyq2_b8v07VGiwZ4ZU2-4" target="lkyq2_b8v07VGiwZ4ZU2-11">
          <mxGeometry relative="1" as="geometry" />
        </mxCell>
        <mxCell id="lkyq2_b8v07VGiwZ4ZU2-13" style="edgeStyle=orthogonalEdgeStyle;rounded=0;orthogonalLoop=1;jettySize=auto;html=1;exitX=1;exitY=0.5;exitDx=0;exitDy=0;entryX=0;entryY=0.5;entryDx=0;entryDy=0;" edge="1" parent="1" source="lkyq2_b8v07VGiwZ4ZU2-4" target="lkyq2_b8v07VGiwZ4ZU2-10">
          <mxGeometry relative="1" as="geometry" />
        </mxCell>
        <mxCell id="lkyq2_b8v07VGiwZ4ZU2-4" value="Para uma pessoa?" style="rhombus;whiteSpace=wrap;html=1;" vertex="1" parent="1">
          <mxGeometry x="320" y="260" width="120" height="80" as="geometry" />
        </mxCell>
        <mxCell id="lkyq2_b8v07VGiwZ4ZU2-7" value="Sim" style="text;html=1;align=center;verticalAlign=middle;resizable=0;points=[];autosize=1;strokeColor=none;fillColor=none;" vertex="1" parent="1">
          <mxGeometry x="460" y="260" width="40" height="30" as="geometry" />
        </mxCell>
        <mxCell id="lkyq2_b8v07VGiwZ4ZU2-8" value="Não" style="text;html=1;align=center;verticalAlign=middle;resizable=0;points=[];autosize=1;strokeColor=none;fillColor=none;" vertex="1" parent="1">
          <mxGeometry x="250" y="260" width="50" height="30" as="geometry" />
        </mxCell>
        <mxCell id="lkyq2_b8v07VGiwZ4ZU2-18" style="edgeStyle=orthogonalEdgeStyle;rounded=0;orthogonalLoop=1;jettySize=auto;html=1;exitX=0.5;exitY=1;exitDx=0;exitDy=0;entryX=1;entryY=0.5;entryDx=0;entryDy=0;" edge="1" parent="1" source="lkyq2_b8v07VGiwZ4ZU2-10" target="lkyq2_b8v07VGiwZ4ZU2-16">
          <mxGeometry relative="1" as="geometry" />
        </mxCell>
        <mxCell id="lkyq2_b8v07VGiwZ4ZU2-10" value="Pegue 1 pacote" style="rounded=0;whiteSpace=wrap;html=1;" vertex="1" parent="1">
          <mxGeometry x="520" y="270" width="120" height="60" as="geometry" />
        </mxCell>
        <mxCell id="lkyq2_b8v07VGiwZ4ZU2-17" style="edgeStyle=orthogonalEdgeStyle;rounded=0;orthogonalLoop=1;jettySize=auto;html=1;exitX=0.5;exitY=1;exitDx=0;exitDy=0;entryX=0;entryY=0.5;entryDx=0;entryDy=0;" edge="1" parent="1" source="lkyq2_b8v07VGiwZ4ZU2-11" target="lkyq2_b8v07VGiwZ4ZU2-16">
          <mxGeometry relative="1" as="geometry" />
        </mxCell>
        <mxCell id="lkyq2_b8v07VGiwZ4ZU2-11" value="Pegue a quantidade de pacotes igual ao numero de pessoa." style="rounded=0;whiteSpace=wrap;html=1;" vertex="1" parent="1">
          <mxGeometry x="120" y="270" width="120" height="60" as="geometry" />
        </mxCell>
        <mxCell id="lkyq2_b8v07VGiwZ4ZU2-21" style="edgeStyle=orthogonalEdgeStyle;rounded=0;orthogonalLoop=1;jettySize=auto;html=1;exitX=0.5;exitY=1;exitDx=0;exitDy=0;entryX=0.5;entryY=0;entryDx=0;entryDy=0;" edge="1" parent="1" source="lkyq2_b8v07VGiwZ4ZU2-16" target="lkyq2_b8v07VGiwZ4ZU2-19">
          <mxGeometry relative="1" as="geometry" />
        </mxCell>
        <mxCell id="lkyq2_b8v07VGiwZ4ZU2-16" value="Separe a porção de agua adequada." style="rounded=0;whiteSpace=wrap;html=1;" vertex="1" parent="1">
          <mxGeometry x="320" y="400" width="120" height="60" as="geometry" />
        </mxCell>
        <mxCell id="lkyq2_b8v07VGiwZ4ZU2-22" style="edgeStyle=orthogonalEdgeStyle;rounded=0;orthogonalLoop=1;jettySize=auto;html=1;exitX=0.5;exitY=1;exitDx=0;exitDy=0;entryX=0.5;entryY=0;entryDx=0;entryDy=0;" edge="1" parent="1" source="lkyq2_b8v07VGiwZ4ZU2-19" target="lkyq2_b8v07VGiwZ4ZU2-20">
          <mxGeometry relative="1" as="geometry" />
        </mxCell>
        <mxCell id="lkyq2_b8v07VGiwZ4ZU2-19" value="Ligar o fogão." style="rounded=0;whiteSpace=wrap;html=1;" vertex="1" parent="1">
          <mxGeometry x="320" y="510" width="120" height="60" as="geometry" />
        </mxCell>
        <mxCell id="lkyq2_b8v07VGiwZ4ZU2-25" style="edgeStyle=orthogonalEdgeStyle;rounded=0;orthogonalLoop=1;jettySize=auto;html=1;exitX=0.5;exitY=1;exitDx=0;exitDy=0;entryX=0.5;entryY=0;entryDx=0;entryDy=0;" edge="1" parent="1" source="lkyq2_b8v07VGiwZ4ZU2-20" target="lkyq2_b8v07VGiwZ4ZU2-23">
          <mxGeometry relative="1" as="geometry" />
        </mxCell>
        <mxCell id="lkyq2_b8v07VGiwZ4ZU2-20" value="Coloque a panela no fogão" style="rounded=0;whiteSpace=wrap;html=1;" vertex="1" parent="1">
          <mxGeometry x="320" y="620" width="120" height="60" as="geometry" />
        </mxCell>
        <mxCell id="lkyq2_b8v07VGiwZ4ZU2-26" style="edgeStyle=orthogonalEdgeStyle;rounded=0;orthogonalLoop=1;jettySize=auto;html=1;exitX=0.5;exitY=1;exitDx=0;exitDy=0;entryX=0.5;entryY=0;entryDx=0;entryDy=0;" edge="1" parent="1" source="lkyq2_b8v07VGiwZ4ZU2-23" target="lkyq2_b8v07VGiwZ4ZU2-24">
          <mxGeometry relative="1" as="geometry" />
        </mxCell>
        <mxCell id="lkyq2_b8v07VGiwZ4ZU2-23" value="Coloque a água" style="rounded=0;whiteSpace=wrap;html=1;" vertex="1" parent="1">
          <mxGeometry x="320" y="730" width="120" height="60" as="geometry" />
        </mxCell>
        <mxCell id="lkyq2_b8v07VGiwZ4ZU2-28" style="edgeStyle=orthogonalEdgeStyle;rounded=0;orthogonalLoop=1;jettySize=auto;html=1;exitX=0.5;exitY=1;exitDx=0;exitDy=0;entryX=0.5;entryY=0;entryDx=0;entryDy=0;" edge="1" parent="1" source="lkyq2_b8v07VGiwZ4ZU2-24" target="lkyq2_b8v07VGiwZ4ZU2-27">
          <mxGeometry relative="1" as="geometry" />
        </mxCell>
        <mxCell id="lkyq2_b8v07VGiwZ4ZU2-24" value="Coloque o macarrão." style="rounded=0;whiteSpace=wrap;html=1;" vertex="1" parent="1">
          <mxGeometry x="320" y="840" width="120" height="60" as="geometry" />
        </mxCell>
        <mxCell id="lkyq2_b8v07VGiwZ4ZU2-30" style="edgeStyle=orthogonalEdgeStyle;rounded=0;orthogonalLoop=1;jettySize=auto;html=1;exitX=0.5;exitY=1;exitDx=0;exitDy=0;entryX=0.5;entryY=0;entryDx=0;entryDy=0;" edge="1" parent="1" source="lkyq2_b8v07VGiwZ4ZU2-27" target="lkyq2_b8v07VGiwZ4ZU2-29">
          <mxGeometry relative="1" as="geometry" />
        </mxCell>
        <mxCell id="lkyq2_b8v07VGiwZ4ZU2-27" value="Coloque o tempero." style="rounded=0;whiteSpace=wrap;html=1;" vertex="1" parent="1">
          <mxGeometry x="320" y="950" width="120" height="60" as="geometry" />
        </mxCell>
        <mxCell id="lkyq2_b8v07VGiwZ4ZU2-32" style="edgeStyle=orthogonalEdgeStyle;rounded=0;orthogonalLoop=1;jettySize=auto;html=1;exitX=0.5;exitY=1;exitDx=0;exitDy=0;entryX=0.5;entryY=0;entryDx=0;entryDy=0;" edge="1" parent="1" source="lkyq2_b8v07VGiwZ4ZU2-29" target="lkyq2_b8v07VGiwZ4ZU2-31">
          <mxGeometry relative="1" as="geometry" />
        </mxCell>
        <mxCell id="lkyq2_b8v07VGiwZ4ZU2-29" value="Aguarde três minutos após o inicio da água fervente." style="rounded=0;whiteSpace=wrap;html=1;" vertex="1" parent="1">
          <mxGeometry x="320" y="1060" width="120" height="60" as="geometry" />
        </mxCell>
        <mxCell id="lkyq2_b8v07VGiwZ4ZU2-34" style="edgeStyle=orthogonalEdgeStyle;rounded=0;orthogonalLoop=1;jettySize=auto;html=1;exitX=0.5;exitY=1;exitDx=0;exitDy=0;entryX=0.5;entryY=0;entryDx=0;entryDy=0;" edge="1" parent="1" source="lkyq2_b8v07VGiwZ4ZU2-31" target="lkyq2_b8v07VGiwZ4ZU2-33">
          <mxGeometry relative="1" as="geometry" />
        </mxCell>
        <mxCell id="lkyq2_b8v07VGiwZ4ZU2-31" value="Desligue o fogão." style="rounded=0;whiteSpace=wrap;html=1;" vertex="1" parent="1">
          <mxGeometry x="320" y="1169" width="120" height="60" as="geometry" />
        </mxCell>
        <mxCell id="lkyq2_b8v07VGiwZ4ZU2-36" style="edgeStyle=orthogonalEdgeStyle;rounded=0;orthogonalLoop=1;jettySize=auto;html=1;exitX=0.5;exitY=1;exitDx=0;exitDy=0;entryX=0.5;entryY=0;entryDx=0;entryDy=0;" edge="1" parent="1" source="lkyq2_b8v07VGiwZ4ZU2-33" target="lkyq2_b8v07VGiwZ4ZU2-35">
          <mxGeometry relative="1" as="geometry" />
        </mxCell>
        <mxCell id="lkyq2_b8v07VGiwZ4ZU2-33" value="Sirva." style="rounded=0;whiteSpace=wrap;html=1;" vertex="1" parent="1">
          <mxGeometry x="320" y="1280" width="120" height="60" as="geometry" />
        </mxCell>
        <mxCell id="lkyq2_b8v07VGiwZ4ZU2-35" value="Fim" style="rounded=1;whiteSpace=wrap;html=1;" vertex="1" parent="1">
          <mxGeometry x="320" y="1390" width="120" height="60" as="geometry" />
        </mxCell>
      </root>
    </mxGraphModel>
  </diagram>
</mxfile>
